# xmcd
#
# Track frame offsets:
#	150
#	16367
#	32092
#	43365
#	56742
#	71480
#	84930
#	96565
#	114542
#	129030
#	143067
#	156155
#
# Disc length: 2257 seconds
#
# Revision: 3
# Processed by: cddbd v1.5.2PL0 Copyright (c) Steve Scherf et al.
# Submitted via: EZCDAudioConverter 6.0.7.1
#
DISCID=a008cf0c
DTITLE=Mickey Gilley - Make It Like The First Time
DYEAR=1993
DGENRE=Country
TTITLE0=Stand By Me
TTITLE1=Fool For Your Love
TTITLE2=That's All That Matters
TTITLE3=Room Full Of Roses
TTITLE4=Put Your Dreams Away
TTITLE5=True Love Ways
TTITLE6=She's Pulling Me Back Again
TTITLE7=You Need A Lady In Your Life
TTITLE8=Make It Like The First Time 
TTITLE9=The Last Dance With You
TTITLE10=Object Of My Affection
TTITLE11=Don't The Girls All Get Prettier At Closing Time
EXTD=
EXTT0=
EXTT1=
EXTT2=
EXTT3=
EXTT4=
EXTT5=
EXTT6=
EXTT7=
EXTT8=
EXTT9=
EXTT10=
EXTT11=
PLAYORDER=
